<?xml version="1.0" encoding="utf-8"?>
<!-- Generator: Adobe Illustrator 16.0.0, SVG Export Plug-In . SVG Version: 6.00 Build 0)  -->
<!DOCTYPE svg PUBLIC "-//W3C//DTD SVG 1.1//EN" "http://www.w3.org/Graphics/SVG/1.1/DTD/svg11.dtd">
<svg version="1.1" id="Layer_1" xmlns="http://www.w3.org/2000/svg" xmlns:xlink="http://www.w3.org/1999/xlink" x="0px" y="0px"
	 width="178.138px" height="153.733px" viewBox="0 0 178.138 153.733" enable-background="new 0 0 178.138 153.733"
	 xml:space="preserve">
<g>
	<path fill="#E1A02A" d="M84.725,66.656c4.83-0.057,25.567,1.03,37.78,11.244c-18.463,0.17-18.748,4.451-18.748,4.451l-8.237,7.117
		c0,0-9.09,0.36-11.078-1.772c-1.988-2.13-1.989-4.972-4.261-6.798c-2.271-1.829-5.682-3.858-6.817-4.915
		c-1.136-1.055-2.271-1.259-2.271-2.394c0-1.138,0.567-3.735,0.567-4.586c0-0.851,3.979-2.838,3.979-2.838L84.725,66.656z"/>
	<path fill="#836030" d="M54.48,109.438c0,0,13.352-4.072,16.902-8.727c3.549-4.652,5.255-7.047,4.543-13.671
		c-0.708-6.627-4.118-10.218-5.113-11.143c-0.994-0.921-1.988-2.841-1.56-3.298c0.425-0.455,1.705-1.112,2.698-0.617
		c0.993,0.498,1.42,0.895,3.123,0.774c1.706-0.122-3.406,0.808-0.992,1.773c2.413,0.966,12.783,2.504,17.611,14.091
		c-1.563,1.532-5.964,4.685-0.853,12.416c1.705,2.151,3.835,3.704,3.976,4.121c0.142,0.416-0.07,2.882-0.07,2.882
		c0.32,0.508,0.745,1.223,1.81,1.47c1.067,0.242,4.263,0.443,2.664,1.195c-1.597,0.753-13.74,4.381-26.629,5.831
		c-6.073,0.536-6.073,0.961-7.776,0.656C63.109,116.887,57.036,115.789,54.48,109.438z"/>
	<path fill="#836030" d="M118.759,67.816c0.348,1.015-2.423,8.138-2.423,8.138l-11.088-4.409c0,0,0.694-3.861,1.733-4.281
		C108.021,66.845,118.759,67.816,118.759,67.816z"/>
	<g>
		<polygon fill="#F37B2A" points="100.069,70.062 99.642,47.51 128.83,44.163 124.356,69.403 		"/>
		<polygon fill="#F9AA72" points="127.978,44.222 111.146,42.432 94.317,44.691 99.642,47.51 		"/>
		<path fill="#C3402D" d="M94.317,44.691c0,0,0.639,21.898,1.493,22.263c0.852,0.367,4.259,3.107,4.259,3.107L99.642,47.51
			L94.317,44.691z"/>
	</g>
	<path fill="#221A21" d="M28.576,149.111c2.204-0.708,24.203-12.4,27.509-12.639c3.306-0.233,5.507-0.388,5.507-0.388
		l-25.741,13.604L28.576,149.111z"/>
	<path fill="#46393E" d="M71.592,126.723c1.929-0.397,24.743-8.922,27.561-8.806c2.814,0.113,2.665,0.72,2.665,0.72l-23.878,8.262
		L71.592,126.723z"/>
	<path fill="#6A5C53" d="M122.533,110.462c1.217-0.208,10.676-3.469,12.453-3.396c1.779,0.069,0.5,0.229,0.5,0.229l-9.361,3.033
		L122.533,110.462z"/>
	<path opacity="0.4" fill="#221A21" d="M8.948,151.499c-1.476,1.582-3.048,3.58,7.651,0.977c10.699-2.606,17.066-4.086,21.862-5.904
		c4.795-1.813,11.805-7.475,11.805-7.475s0.789,12.938,11.264,6.172c25.039-16.171,50.703-20.494,50.703-20.494l12.114-6.819
		c0,0,12.791-7.409-10.842-3.566c-14.346,2.332-8.641,2.757-11.223,4.419c-2.581,1.658-1.942-2.579-1.942-2.579
		s-37.278,5.442-56.964,16.556c-6.185,3.493-14.194,11.499-23.16,13.535C8.295,149.025,8.948,151.499,8.948,151.499z"/>
	<g>
		<path fill="#221A21" d="M66.198,69.908c0,0-0.214-6.166,2.554-6.999c2.771-0.837,9.8-1.122,13.422-3.083
			c3.622-1.959,6.817-3.679,11.506-2.52c4.684,1.158,5.751,2.362,5.537,5.145c-0.214,2.786,2.345,6.438-2.771,7.867
			c-5.113,1.431-10.437,1.592-15.551,1.532c-5.112-0.067-5.112,0.359-8.095,0.144C69.818,71.78,65.984,71.198,66.198,69.908z"/>
		<path fill="#4E434A" d="M67.049,64.73c0,0,2.769-4.455,5.964-0.208c1.067,0.99,1.278,0.761,4.688,0.52
			c3.409-0.239,7.457-0.102,11.291-1.438c3.835-1.338,7.67-2.249,9.586-2.81c0-1.706-0.425-2.527-4.897-3.488
			c-4.475-0.962-8.522,1.031-11.506,2.52c-2.983,1.49-7.456,2.233-10.013,2.628C69.606,62.845,67.688,62.981,67.049,64.73z"/>
		<path fill="#4E434A" d="M71.95,71.983c0,0,1.491-0.886,2.131-3.488c0.638-2.602,1.704-1.613,3.833-1.126
			c2.131,0.49-0.427,1.31,4.475,1.176c4.898-0.135,10.012-0.07,12.355-1.087c2.342-1.021,4.897-0.136,4.897-0.136
			s1.069,2.055-6.601,3.452C85.37,72.168,71.95,71.983,71.95,71.983z"/>
	</g>
	<path fill="#E1A02A" d="M63.96,115.121c0.303-0.124,0.641-0.684,10.227-2.108c0,0,7.776-0.552,12.994-2.308
		c5.22-1.753,5.647-1.461,6.5-1.42c0.848,0.049,2.873,0.225,2.873,0.225s-2.236,0.479-1.81-1.47
		c0.426-1.945,1.598-3.732-0.852-3.242c-2.451,0.493-6.818,0.59-7.244,0.619c-0.426,0.033-0.105-0.099-3.195,1.505
		c-3.089,1.604-5.328,2.406-12.463,3.229c-7.137,0.825-14.062,2.059-14.062,2.059s0.96,2.81,3.303,3.069
		C62.575,115.539,62.362,115.768,63.96,115.121z"/>
	<path fill="#07251D" d="M65.492,108.737c-0.955,0.258-9.916,1.275-9.916,1.275s-1.335-21.646-2.862-29.352
		c-1.525-7.712,7.628-7.408,7.628-7.408l8.201,32.218L65.492,108.737z"/>
	<path fill="#221A21" d="M76.772,102.441c0,0,2.84,6.902,3.124,8.021c0.182,0.72-11.167,3.948-18.984,4.754
		c-4.29,0.443-7.274-1.218-7.274-1.218l14.611-6.407L76.772,102.441z"/>
	<path fill="#1E6C57" d="M82.737,61.685c-0.852,0.063-17.044,9.163-19.033,9.87c-1.987,0.71,2.841,8.04,4.261,9.073
		c1.422,1.037-1.24,4.173,0,4.828c2.841,1.501,10.743,17.337,10.743,17.337l-13.583,7.577c0,0-11.362-26.749-14.201-29.388
		c-2.841-2.638-3.41-11.402-1.137-14.122c2.272-2.717-3.977,0.85-3.977,0.85l-7.386-2.032c0,0,12.499-11.112,24.144-13.074
		c16.476-1.734,20.737-1.186,19.885,0.863c-0.853,2.051,0.284,5.376,0.284,5.376V61.685z"/>
	<path fill="#15493C" d="M61.095,101.608c0,0,2.505-3.516-4.551-29.517c-2.402-8.85,1.771-13.53,26.94-17.262
		c1.634-0.242-23.841,0.076-25.029-0.867c-1.188-0.944-8.312,3.113-9.646,4.274c-1.334,1.159-2.667,6.323-2.134,8.152
		c0.534,1.829,6.079,16.899,6.079,16.899L61.095,101.608z"/>
	<path fill="#221A21" d="M55.385,112.697c0.572,0.151,13.538-1.152,13.538-1.152l-2.096-4.617l-6.674-0.1l-5.529,1.726
		L55.385,112.697z"/>
	<path fill="#60BA4C" d="M70.464,15.247c0,0,11.319-3.172,19.373,13.196c0,0,9.662,19.626-4.828,31.852
		c-9.711,8.194,9.091-8.195-22.44-6.743c1.838-7.331,1.575-12.051-4.543-16.083c0,0-7.102,10.138-14.771,13.808
		c-4.546-1.242-4.546-1.242-4.546-1.242s8.068-6.168,14.204-16.628c6.532-11.141,8.43-13.887,14.487-15.871
		C73.453,15.552,69.375,15.678,70.464,15.247z"/>
	<path fill="#4C9B47" d="M72.398,52.863c0.156-0.631-9.449-2.694-8.829-3.432c5.179-6.171,6.999-15.132-3.522-22.051
		c-0.888-0.583,8.573-12.82,8.573-12.82s16.249-1.245,19.912,17.922c5.027,26.296-6.516,30.401-6.516,30.401
		s1.087-7.987-9.307-8.957C70.693,52.519,72.398,52.863,72.398,52.863z"/>
	<path fill="#4C9B47" d="M57.434,37.895c0,0-5.914,8.859-14.179,13.381c-2.282-0.242-0.935-1.986-1.235-1.963
		C41.722,49.331,53.842,35.755,57.434,37.895z"/>
	<g>
		<path fill="#221A21" d="M120.198,106.484c0.591-9.869-5.501-17.402-13.61-16.826c-8.109,0.573-15.163,6.48-15.755,16.352
			c-0.591,9.866,1.711,20.229,13.611,19.384C114.699,124.666,119.606,116.353,120.198,106.484z"/>
		<path fill="#6F6267" d="M112.428,112.004c0-3.296-2.576-5.783-5.753-5.555c-3.18,0.225-5.753,3.079-5.753,6.369
			c0,3.296,2.573,5.783,5.753,5.559C109.852,118.152,112.428,115.301,112.428,112.004z"/>
	</g>
	<path fill="#221A21" d="M39.537,127.123c0.797-11.822-7.407-20.78-18.324-20.006s-21.438,6.703-21.209,22.806
		c0.167,11.851,6.008,20.618,18.321,20.009C30.924,149.304,38.739,138.943,39.537,127.123z"/>
	<path fill="#6F6267" d="M32.926,126.587c0.418-6.928-3.895-12.218-9.633-11.813c-5.739,0.409-10.732,6.356-11.151,13.287
		c-0.42,6.934,3.893,12.22,9.632,11.814C28.399,139.408,32.506,133.52,32.926,126.587z"/>
	<path fill="#FBB229" d="M38.858,57.285c0,0-2.982,0.496-4.971,5.323c-1.989,4.83-6.25,19.051-6.391,21.76
		c-0.143,2.705,0,3.834,0,3.834s-2.557,3.164-0.995,5.607c-0.568,1.18-1.277,1.513-0.426,1.878c0.853,0.364,4.118,6.811,6.107,8.939
		c1.988,2.134,10.367,8.354,10.367,8.354s5.965,2.562,8.096,3.973c2.13,1.409,8.521,2.378,18.89,0.649
		c-5.538-0.889-10.935,2.193-16.901-19.396c-1.704-5.274-1.278-11.899,0.513-15.194c2.445-4.501,4.457-11.291,4.884-12.74
		c0.425-1.451,0.994-4.189-1.136-7.731c-2.129-3.542-4.687-3.647-4.687-3.647s-0.426-1.388-1.137-2.047
		c-0.71-0.66-0.852-2.354-3.409-2.458c-2.556-0.103-4.047,0.179-4.899,0.666C41.493,55.781,40.562,57.307,38.858,57.285z"/>
	<path fill="#FBB229" d="M44.965,119.059c0,0-2.272-8.643-2.699-11.026c-0.425-2.385-0.284-8.643-14.486-12.323
		c-1.137-0.203-2.273-0.408-1.847-1.147c0,0-8.521,0.462-15.339,5.206c-6.817,4.743-8.947,11.853-8.947,11.853
		s0.141,1.269,2.414,1.675c2.272,0.409,8.806,1.507,13.351,1.47c4.544-0.038,13.352,0.616,16.759,3.642
		C37.58,121.433,46.101,121.251,44.965,119.059z"/>
	<path fill="#FBB229" d="M69.535,117.604c0.898-0.014,17.895-2.547,23.292-3.783c5.396-1.234,6.814-2.614,7.527-2.947
		c0.708-0.333,7.813-1.69,8.806-1.475c2.981,2.487,14.486-2.305,17.612-3.948c1.419-2.941,4.686-10.699,0.993-20.665
		c0,0-1.847-5.832-11.08-10.576c-9.229-4.741-20.023-0.285-24.994,14.412c-1.278,1.086-5.964,4.685-1.563,11.472
		c1.844,2.995,4.686,5.065,4.686,5.065s0.142,3.114,0.428,3.804c0.282,0.691,3.834,0.867,3.834,1.292
		c0,0.424-8.097,3.839-30.961,6.741c-2.982,0.066-4.545,0.037-4.971-0.074C62.718,116.808,66.979,117.644,69.535,117.604z"/>
	<path fill="#FFC65B" d="M39.994,67.856c0,0-5.322,16.005-7.045,17.678c-1.723,1.675-2.24,2.057-3.964,2.176
		c0,0,2.913,0.322,2.486,2.197c-0.425,1.878-1.136,4.627-3.975,4.118c-0.854,0.769,0.058,0.385,2.188,0.805
		c2.129,0.416,7.192,2.537,10.458,6.282c1.846,2.284-1.711-1.615-3.132-6.771c-1.42-5.151-1.988-6.389-0.427-11.474
		c1.564-5.078,5.682-18.438,5.682-19.147C42.266,63.01,40.501,66.571,39.994,67.856z"/>
	<path fill="#F7ECAF" d="M30.763,91.021c0.313-1.472-0.513-2.59-1.847-2.495c-1.333,0.095-2.669,1.364-2.983,2.84
		c-0.313,1.474,0.514,2.589,1.847,2.496C29.113,93.769,30.448,92.499,30.763,91.021z"/>
	<path fill="#E1A02A" d="M40.56,57.307c-0.388,0.028,8.697,0.802,10.644,1.66c-1.558-2.871-2.336-4.095-3.635-4.287
		c-1.296-0.193-3.44-0.432-4.283,0.303C42.443,55.719,42.118,57.198,40.56,57.307z"/>
	<g>
		<path fill="#836030" d="M110.581,91.969c0,0,5.964-0.706,9.943-1.557c3.974-0.852,4.969-0.494,3.974,0.145
			c-0.993,0.638-12.07,2.563-13.065,2.63C110.438,93.26,110.581,91.969,110.581,91.969z"/>
		<path fill="#836030" d="M110.295,94.545c0,0,11.646-1.962,14.345-2.72c0.854,0.506,1.137,1.196,0.285,1.259
			c-0.852,0.057-14.486,2.73-15.054,2.912C109.302,96.18,110.295,94.545,110.295,94.545z"/>
		<path fill="#836030" d="M109.587,97.435c0,0,0,1.137,2.129,0.704c2.133-0.436,12.073-2.42,12.501-2.449
			c0.423-0.029,0.708-1.328,0.708-1.328L109.587,97.435z"/>
		<path fill="#836030" d="M111.574,99.567l12.215-2.428c-0.853,0.771-7.953,3.261-10.368,3.15
			C111.008,100.176,110.722,100.054,111.574,99.567z"/>
	</g>
	<path fill="#7D8286" d="M33.461,46.024c0,0,2.135-2.944,5.963-1.845c3.384,0.97,7.386,5.159,7.386,5.159l8.378,2.388
		c0,0,1.563-1.532,2.132-0.01c2.271,0.691,15.054,3.478,15.054,3.478s0.567,2.233-0.143,3.135c-0.708,0.902-2.839,0.767-3.975,0.565
		c-1.136-0.204-12.075-2.552-12.075-2.552s-0.424,1.734-1.418,0.526c-0.995-1.207-0.995-1.207-0.995-1.207l-3.835-0.722
		c0,0-4.936-1-6.213-0.484c-1.278,0.517-2.027,2.673-6.284,2.649C32.659,57.069,30.523,50.972,33.461,46.024z"/>
	<path fill="#AEB3B5" d="M34.88,45.071c0,0,2.906-0.607,3.208,4.56c0.084,1.445,0.121,4.033-1.206,5.996
		c-0.965,1.093-2.285,0.685-2.285,0.685s4.119,1.695,4.829-0.484c0.712-2.181,1.847-5.957,0-9.516
		C38.147,43.846,36.444,44.391,34.88,45.071z"/>
	<path fill="#F3F1D4" d="M37.729,50.346c-0.004-3.465-1.2-5.026-2.657-4.844c-1.458,0.183-2.796,2.289-2.623,5.501
		c0.173,3.213,1.587,5.143,3.045,4.961C36.952,55.784,37.731,53.577,37.729,50.346z"/>
	<path fill="#AEB3B5" d="M55.617,55.104c0,0-0.286,1.299,0.425,2.67c0.71,1.368,1.847,1.004,3.124,1.906
		c1.278,0.904,2.983,3.483,2.983,3.483s0.709,0.943,0.709-0.477c0-1.421-1.845-3.705-3.124-4.324
		c-1.279-0.618-1.846-1.147-0.426-2.242C58.031,54.789,56.468,54.619,55.617,55.104z"/>
	<path fill="#AEB3B5" d="M54.711,56.88c0,0-1.497-1.062-0.539-3.708c0.866-2.388,2.9-2.363,3.149-1.456
		c-0.924,0.455-2.735,1.223-1.456,5.181C55.551,57.419,54.951,57.283,54.711,56.88z"/>
	<path fill="#C2C2C5" d="M72.413,56.814c0-0.832-0.674-1.461-1.507-1.402c-0.834,0.06-1.508,0.784-1.508,1.616
		c0,0.833,0.674,1.461,1.508,1.402C71.739,58.37,72.413,57.647,72.413,56.814z"/>
	<path fill="#E1A02A" d="M51.644,59.426c0,0,8.704,3.119,4.511,14.159c-3.008,7.922-8.461,13.572-3.571,28.831
		c2.82,8.075,3.791,13.29,10.717,15.226c-5.483,0.557-12.974,0.351-15.982-6.39c-3.731-8.359-7.146-17.356-3.197-27.036
		C49.248,71.65,53.901,63.592,51.644,59.426z"/>
	<path fill="#FFC65B" d="M2.757,111.027c0,0,0.014-0.038,0.042-0.111c0.51-1.269,5.77-13.356,22.333-15.954
		c4.7,0.23,7.897,2.073,9.777,2.689C36.79,98.274,16.106,95.603,2.757,111.027z"/>
	<path fill="#E1A02A" d="M44.965,119.059c0,0-1.595-15.797-9.68-17.67c-8.085-1.873-16.734,5.322-15.982,9.593
		c0.752,4.272,0.376,3.734,5.077,3.022c4.7-0.709,4.889,0.219,7.71,1.523C34.909,116.832,37.533,121.775,44.965,119.059z"/>
	<path fill="#52593F" d="M65.91,48.682c0.705,0.207,5.642,0.432,5.962,0.472c0.32,0.043,1.346,2.023,1.346,2.023
		s1.091,1.269,0.835,1.35c-0.256,0.083-0.193,1.491-0.193,1.491s-1.538,2.16-6.797-0.032c-5.257-2.192-1.987-3.323-1.987-3.643
		C65.076,50.022,65.91,48.682,65.91,48.682z"/>
	<path fill="#72BE4A" d="M74.784,16.8c-0.863,0.801-0.853,21.649-0.853,21.649L63.705,49.4c0,0,9.09-0.077,10.226,4.387
		c3.692-9.632,7.102-11.014,7.955-18.742c0.852-7.729-2.841-16.558-2.841-16.558S76.772,14.954,74.784,16.8z"/>
	<path fill="#F0D4C0" d="M64.798,48.976c0,0-6.445,1.141-6.034,5.364c0.413,4.22,0.275,4.639,1.371,4.152
		c1.096-0.49,1.096-0.49,1.096-0.49s-0.272,2.214,1.647,1.804c1.919-0.41,1.919-1.235,1.919-1.235s-0.823,2.802,0.686,2.01
		c1.507-0.794,1.919-1.645,1.919-1.645s-1.098,1.997,0.686,2.282c1.783,0.285,2.467,0.374,3.015-0.215
		c0.55-0.586,2.057-2.75,0.414-2.086c-1.646,0.667-4.389-1.058-2.744-4.465c1.37,0.452,1.37,0.452,1.37,0.452
		s1.097-3.643-0.686-4.203c-1.782-0.559-0.136-0.814-0.136-0.814L64.798,48.976z"/>
	<path fill="#E0D0BE" d="M51.45,18.226c0,0-4.495,5.619,0.714,6.053c0.626,1.565,0.833,3.563,0.833,3.563s-0.626,2.458,2.918,2.809
		c3.542,0.354,9.168-4.672,9.377-9.716c0.208-5.042-0.625-7.8-0.625-7.8l-10.627,0.352l-5.418-1.426L51.45,18.226z"/>
	<path fill="#006EB1" d="M51.092,9.486c0,0,3.99-10.701,14.28-9.372c12.341,1.594,9.924,19.306-0.079,20.82
		c-0.416-3.389-1.458-8.545-1.458-8.545S54.636,13.06,51.092,9.486z"/>
	<path fill="#00ABD3" d="M51.123,9.469c0,0,3.901-9.963,13.686-9.271c-1.731,0.21-9.698,1.727-11.518,9.995
		C51.991,10.025,51.123,9.469,51.123,9.469z"/>
	<path fill="#005B93" d="M68.359,0.897c0,0,10.044,4.053,2.686,16.609c-1.907,2.992-5.751,3.427-5.751,3.427
		s-1.438-7.334-1.698-8.699c4.852-3.634,7.102,2.439,7.449-3.3C71.286,4.927,68.359,0.897,68.359,0.897z"/>
	<path fill="#221A21" d="M65.501,11.467c0.227-0.58-11.878-0.164-14.379-1.999c-3.334,0.639-7.293,4.738-0.416,6.063
		C57.584,16.854,63.419,16.844,65.501,11.467z"/>
	<linearGradient id="SVGID_1_" gradientUnits="userSpaceOnUse" x1="138.627" y1="75.9463" x2="173.006" y2="71.564">
		<stop  offset="0" style="stop-color:#FFFFFF"/>
		<stop  offset="1" style="stop-color:#FFFFFF;stop-opacity:0"/>
	</linearGradient>
	<path opacity="0.6" fill="url(#SVGID_1_)" d="M178.138,91.128c-9.446,2.181-17.544,4.126-13.437,2.34
		c2.303-1.001,7.305-2.955,13.437-5.203V79.76c-6.017,0.573-10.256,0.931-10.256,0.763c0-0.238,4.144-1.643,10.256-3.366v-4.642
		c-13.575,0.943-26.06,1.738-28.699,1.684c-3.565-0.069,11.692-3.188,28.699-6.231v-5.974c-18.193-0.019-36.9,0.068-42.055,0.432
		c-7.351,0.522,19.127-2.15,42.055-4.343v-5.941c-9.676-0.591-21.674-1.31-36.329-2.204l36.329-0.36v-2.802l-46.146-1.638
		l-4.591,27.033l-6.678-0.36c0,0,17.947,7.908,10.852,31.361c-0.835,2.984-2.505,3.521-5.842,5.006
		c-3.339,1.491-3.339,1.491-3.339,1.491l33.872-7.807c6.7-1.708,14.195-3.696,21.871-5.767V91.128z"/>
	<path fill="#221A21" d="M53.063,25.599c0,0,2.455,1.284,4.41-1.339C56.581,26.102,54.124,27.497,53.063,25.599z"/>
	<circle fill="#221A21" cx="54.849" cy="18.51" r="0.502"/>
	<circle fill="#221A21" cx="51.583" cy="18.003" r="0.319"/>
	<g>
		<path fill="#221A21" d="M55.693,15.3c-1.413,0-2.578,1.063-2.742,2.431c-0.081-0.025-0.169-0.052-0.258-0.074
			c-0.008-1.299-1.011-2.231-2.113-2.097c-0.982,0.12-1.7,1.064-1.7,2.116c0,1.051,0.718,1.996,1.7,2.116
			c0.792,0.096,1.528-0.364,1.884-1.108l0.569,0.13c0.327,1.16,1.395,2.015,2.66,2.015c1.527,0,2.765-1.236,2.765-2.764
			C58.458,16.538,57.221,15.3,55.693,15.3z M50.581,19.314c-0.771-0.074-1.347-0.805-1.347-1.638c0-0.834,0.576-1.568,1.347-1.64
			c0.847-0.082,1.595,0.65,1.595,1.64C52.176,18.664,51.427,19.395,50.581,19.314z M55.693,20.208c-1.181,0-2.141-0.959-2.141-2.144
			c0-1.183,0.96-2.142,2.141-2.142c1.183,0,2.142,0.959,2.142,2.142C57.835,19.249,56.876,20.208,55.693,20.208z"/>
		<circle opacity="0.5" fill="#FFFFFF" cx="55.63" cy="18.039" r="2.353"/>
		<path opacity="0.5" fill="#FFFFFF" d="M52.382,17.656c0-0.969-0.736-1.748-1.644-1.748c-0.908,0-1.645,0.779-1.645,1.748
			c0,0.967,0.736,1.75,1.645,1.75C51.646,19.405,52.382,18.623,52.382,17.656z"/>
	</g>
	<path fill="#221A21" d="M58.255,17.329c0.367,0,6.169-1.468,6.169-1.468l0.147,1.101l-6.244,1.101L58.255,17.329z"/>
</g>
</svg>
